<?xml version="1.0"?>
<svg xmlns="http://www.w3.org/2000/svg" viewBox="0 0 72 72"><g id="Layer_25" data-name="Layer 25"><path d="M53,29A16,16,0,1,0,69,45,16.02123,16.02123,0,0,0,53,29Zm8,24a1.003,1.003,0,0,1-1,1H46a1.003,1.003,0,0,1-1-1V48a5.00181,5.00181,0,0,1,5-5V36a3,3,0,0,1,6,0v7a5.00181,5.00181,0,0,1,5,5Z"/><path d="M56,48a1.003,1.003,0,0,1,1-1h1.82A3.01041,3.01041,0,0,0,56,45H50a3.01041,3.01041,0,0,0-2.82,2H54a1,1,0,0,1,0,2H47v3H59V49H57A1.003,1.003,0,0,1,56,48Z"/><path d="M54,36a1,1,0,0,0-2,0v7h2Z"/><path d="M64,11H8a5.00181,5.00181,0,0,0-5,5V39a5.00181,5.00181,0,0,0,5,5H35.03a17.61425,17.61425,0,0,1,.68-4H14a1.003,1.003,0,0,1-1-1V35a1.003,1.003,0,0,1,1-1H38.77A17.97159,17.97159,0,0,1,69,36.78V16A5.00181,5.00181,0,0,0,64,11ZM10,21a3,3,0,1,1,3-3A3.00879,3.00879,0,0,1,10,21Zm30-1H32a3,3,0,0,1,0-6h8a3,3,0,0,1,0,6ZM15,38H36.42a14.99237,14.99237,0,0,1,1.01-2H15Z"/><path d="M40,18a1,1,0,0,0,0-2H32a1,1,0,0,0,0,2Z"/><circle cx="10" cy="18" r="1"/></g></svg>
