<svg id="&#x421;&#x43B;&#x43E;&#x439;_1" enable-background="new 0 0 160 160" viewBox="0 0 160 160" xmlns="http://www.w3.org/2000/svg"><g><path d="m116 125v-23h-3v29.726c0 3.308 2.458 6.058 5.597 6.261 1.672.109 3.282-.462 4.505-1.608 1.224-1.147 1.898-2.702 1.898-4.379v-1h-3c-3.309 0-6-2.692-6-6z"/><path d="m129 44.845v15.155c0 2.206-1.794 4-4 4h-12c-2.206 0-4-1.794-4-4v-15.155c-5.55 3.424-9 9.48-9 16.155 0 7.722 4.617 14.616 11.763 17.564.749.309 1.237 1.039 1.237 1.849v6.587h12v-6.587c0-.81.488-1.54 1.237-1.849 7.146-2.948 11.763-9.842 11.763-17.564 0-6.675-3.45-12.731-9-16.155z"/><path d="m123 102h-3v23c0 1.103.897 2 2 2h9c1.103 0 2-.897 2-2v-26c0-.897-.597-1.649-1.413-1.902-1.746 2.929-4.936 4.902-8.587 4.902z"/><path d="m37 30h18.001v5h-18.001z"/><path d="m99 114c-3.177 0-6.173-1.038-8.664-3.002-.868-.684-1.016-1.941-.332-2.809.684-.867 1.941-1.016 2.809-.332 1.778 1.402 3.917 2.143 6.187 2.143 5.514 0 10-4.486 10-10 0-1.104.896-2 2-2h12c3.309 0 6-2.692 6-6v-1h-33.302c-3.14 0-6.093 1.223-8.313 3.444-2.267 2.266-5.28 3.556-8.486 3.556h-4.899v22h4.858c3.206 0 6.219 1.248 8.485 3.515 2.262 2.262 5.215 3.485 8.355 3.485h13.302v-17.221c-2.543 2.6-6.084 4.221-10 4.221z"/><path d="m22 91v36h45c1.657 0 3-1.343 3-3v-30c0-1.657-1.343-3-3-3z"/><path d="m133 22h-106c-2.757 0-5 2.243-5 5v38c0 2.757 2.243 5 5 5h6v-12c0-4.411 3.589-8 8-8h50c1.104 0 2 .896 2 2s-.896 2-2 2h-50c-2.206 0-4 1.794-4 4v12h60.835c-1.184-2.789-1.835-5.834-1.835-9 0-9.348 5.588-17.694 14.237-21.262.616-.254 1.32-.185 1.875.187.555.371.888.995.888 1.662v18.413h12v-18.414c0-.667.333-1.291.888-1.662.555-.372 1.258-.441 1.875-.187 4.256 1.756 7.765 4.672 10.237 8.291v-21.028c0-2.757-2.243-5-5-5zm-74 13c0 2.206-1.794 4-4 4h-18c-2.206 0-4-1.794-4-4v-5c0-2.206 1.794-4 4-4h18c2.206 0 4 1.794 4 4zm31 29h-47c-1.104 0-2-.896-2-2s.896-2 2-2h47c1.104 0 2 .896 2 2s-.896 2-2 2zm14-29c-1.654 0-3-1.346-3-3s1.346-3 3-3 3 1.346 3 3-1.346 3-3 3zm10 0c-1.654 0-3-1.346-3-3s1.346-3 3-3 3 1.346 3 3-1.346 3-3 3zm10 0c-1.654 0-3-1.346-3-3s1.346-3 3-3 3 1.346 3 3-1.346 3-3 3z"/></g></svg>