<?xml version="1.0" encoding="UTF-8"?>
<svg xmlns="http://www.w3.org/2000/svg" id="Layer_3" data-name="Layer 3" viewBox="0 0 64 64" width="512" height="512"><path d="M23,25h3a1,1,0,0,1,1,1v3a1,1,0,0,1-.293.707l-1.269,1.269A4.006,4.006,0,0,0,29,27a3.937,3.937,0,0,0-.253-1.348,1,1,0,0,1,.233-1.047l1.148-1.147a.977.977,0,0,1,0-.916L29,21.414,27.4,23.02a1,1,0,0,1-1.047.233A3.937,3.937,0,0,0,25,23a4.006,4.006,0,0,0-3.976,3.562l1.269-1.269A1,1,0,0,1,23,25Z"/><path d="M31.5,21.086,33.086,19.5l-3.793-3.793A1,1,0,0,1,29,15V13.414l-4-4L21.414,13l4,4H27a1,1,0,0,1,.707.293Z"/><path d="M32,37A17,17,0,1,0,15,20,17.019,17.019,0,0,0,32,37ZM19.372,29.027A5.955,5.955,0,0,1,25,21a5.727,5.727,0,0,1,1.405.181L27.586,20l-1-1H25a1,1,0,0,1-.707-.293l-5-5a1,1,0,0,1,0-1.414l5-5a1,1,0,0,1,1.414,0l5,5A1,1,0,0,1,31,13v1.586l1,1,1.181-1.181A5.727,5.727,0,0,1,33,13a5.955,5.955,0,0,1,8.027-5.628A1,1,0,0,1,41.4,9.02L39,11.414V13h1.586l2.394-2.395a1,1,0,0,1,1.648.368A5.955,5.955,0,0,1,39,19a5.727,5.727,0,0,1-1.405-.181l-.681.681,7.793,7.793a1,1,0,0,1,0,1.414l-4,4a1,1,0,0,1-1.414,0L31.5,24.914l-.681.681A5.727,5.727,0,0,1,31,27a5.955,5.955,0,0,1-8.027,5.628,1,1,0,0,1-.368-1.648L25,28.586V27H23.414L21.02,29.4a1,1,0,0,1-1.648-.368Z"/><path d="M43.619,35H56V34a1,1,0,0,0-1-1H45.818A19.032,19.032,0,0,1,43.619,35Z"/><path d="M35.458,18.128,36.6,16.98a1,1,0,0,1,1.047-.233A3.937,3.937,0,0,0,39,17a4.006,4.006,0,0,0,3.976-3.562l-1.269,1.269A1,1,0,0,1,41,15H38a1,1,0,0,1-1-1V11a1,1,0,0,1,.293-.707l1.269-1.269A4.006,4.006,0,0,0,35,13a3.937,3.937,0,0,0,.253,1.348A1,1,0,0,1,35.02,15.4L33.414,17l1.128,1.128A.977.977,0,0,1,35.458,18.128Z"/><rect x="35.671" y="20.136" width="3.657" height="10.728" transform="translate(-7.048 33.985) rotate(-45)"/><path d="M18.182,33H9a1,1,0,0,0-1,1v1H20.381A19.032,19.032,0,0,1,18.182,33Z"/><path d="M58,37H40.434a18.783,18.783,0,0,1-16.868,0H6a3,3,0,0,0-3,3v1H61V40A3,3,0,0,0,58,37Z"/><rect x="13" y="59" width="38" height="2"/><path d="M49,55H15a2,2,0,0,0-2,2H51A2,2,0,0,0,49,55Z"/><path d="M3,58a3,3,0,0,0,3,3h5V57a4,4,0,0,1,4-4H49a4,4,0,0,1,4,4v4h5a3,3,0,0,0,3-3V43H3ZM28,46H52v4H28Zm-6,0a2,2,0,1,1-2,2A2,2,0,0,1,22,46Zm-8,0a2,2,0,1,1-2,2A2,2,0,0,1,14,46Z"/></svg>
