<svg id="Capa_1" enable-background="new 0 0 512.283 512.283" height="512" viewBox="0 0 512.283 512.283" width="512" xmlns="http://www.w3.org/2000/svg"><g><g id="Page-1_96_"><g id="_x30_97---Repair-Printer"><g clip-rule="evenodd" fill-rule="evenodd"><path id="Path_536_" d="m339.817 397.714c-13.011 2.446-26.382 2.247-39.314-.585l71.845 71.845c2.377 2.296 3.33 5.695 2.493 8.892s-3.333 5.693-6.53 6.53-6.596-.116-8.891-2.493l-77.714-77.714-19.438 19.429 77.714 77.714c14.277 14.303 37.446 14.323 51.749.046s14.323-37.446.046-51.749z"/><path id="Path_535_" d="m343.858 239.909-6.921 6.949h111.205v-27.429h-98.368c1.647 7.388-.582 15.107-5.916 20.48z"/><path id="Path_534_" d="m429.856 173.714h-347.429c-10.099 0-18.286 8.187-18.286 18.286v9.143h384v-9.143c.001-10.099-8.186-18.286-18.285-18.286z"/><path id="Path_533_" d="m154.565 235.31-36.873-15.781c-.361-.199-.81-.131-1.097.165l-6.482 6.482c-.28.284-.343.717-.155 1.07l15.808 36.983c1.091 2.424 2.978 4.401 5.349 5.605l25.536 12.8c.899.452 1.717 1.048 2.423 1.765l56.887 57.6 11.145-11.145c-1.279-4.018-2.302-8.113-3.063-12.261l-49.271-49.938c-.674-.685-1.235-1.472-1.664-2.331l-12.891-25.691c-1.224-2.368-3.218-4.245-5.652-5.323z"/></g><path id="Shape_163_" d="m466.427 0h-420.571c-25.235.03-45.684 20.48-45.714 45.714v192c0 5.049 4.093 9.143 9.143 9.143h36.571v-54.857c0-20.198 16.374-36.571 36.571-36.571h347.429c20.198 0 36.571 16.374 36.571 36.571v54.857h36.571c5.049 0 9.143-4.093 9.143-9.143v-192c-.029-25.234-20.479-45.684-45.714-45.714zm-166.125 88.082c2.852 1.622 4.617 4.647 4.624 7.928s-1.744 6.314-4.589 7.948-6.347 1.619-9.178-.041l-25.874-14.939v29.879c0 5.049-4.093 9.143-9.143 9.143-5.049 0-9.143-4.093-9.143-9.143v-29.879l-25.874 14.939c-4.369 2.484-9.924.976-12.437-3.377-2.513-4.352-1.042-9.917 3.294-12.459l25.874-14.939-25.874-14.939c-4.336-2.542-5.807-8.106-3.294-12.459 2.513-4.352 8.068-5.861 12.437-3.377l25.874 14.939v-29.877c0-5.049 4.093-9.143 9.143-9.143 5.049 0 9.143 4.093 9.143 9.143v29.879l25.874-14.939c4.369-2.484 9.924-.976 12.437 3.377 2.513 4.352 1.042 9.917-3.294 12.459l-25.874 14.939zm65.554 49.061c-5.049 0-9.143-4.093-9.143-9.143 0-5.049 4.093-9.143 9.143-9.143 5.049 0 9.143 4.093 9.143 9.143 0 5.049-4.094 9.143-9.143 9.143zm45.714 0c-5.049 0-9.143-4.093-9.143-9.143 0-5.049 4.093-9.143 9.143-9.143 5.049 0 9.143 4.093 9.143 9.143 0 5.049-4.093 9.143-9.143 9.143zm45.715 0c-5.049 0-9.143-4.093-9.143-9.143 0-5.049 4.093-9.143 9.143-9.143 5.049 0 9.143 4.093 9.143 9.143-.001 5.049-4.094 9.143-9.143 9.143zm0-36.572h-91.429c-5.049 0-9.143-4.093-9.143-9.143s4.093-9.143 9.143-9.143h91.429c5.049 0 9.143 4.093 9.143 9.143s-4.094 9.143-9.143 9.143z"/><path id="Path_532_" clip-rule="evenodd" d="m93.225 219.429h-29.083v27.429h34.313l-5.303-12.389c-2.039-4.812-2.013-10.249.073-15.04z" fill-rule="evenodd"/><path id="Path_531_" clip-rule="evenodd" d="m183.776 246.857h54.318c1.326-2.066 2.587-4.169 4.087-6.144 6.262-8.19 13.746-15.369 22.19-21.285h-100.901c5.603 2.839 10.168 7.373 13.047 12.955z" fill-rule="evenodd"/><path id="Shape_162_" d="m292 375.671c29.947 11.818 64.053 4.687 86.757-18.139 16.988-16.914 25.529-40.535 23.287-64.402-.129-1.496-1.158-2.761-2.597-3.191-1.571-.623-3.361-.265-4.571.914l-25.536 25.49c-6.006 5.985-14.452 8.84-22.857 7.726l-22.437-3.154c-12.005-1.682-21.436-11.125-23.104-23.131l-3.145-22.309c-1.147-8.475 1.735-16.999 7.79-23.04l25.335-25.417c1.188-1.228 1.546-3.039.914-4.626-.481-1.46-1.795-2.485-3.328-2.597-2.438-.213-4.852-.32-7.241-.32-26.721.028-51.701 13.26-66.737 35.349-15.035 22.089-18.183 50.182-8.408 75.051 1.328 3.382.528 7.229-2.039 9.801l-126.355 126.381c-6.966 6.765-9.748 16.757-7.28 26.149 2.467 9.391 9.802 16.726 19.193 19.193s19.384-.315 26.149-7.28l126.4-126.4c2.571-2.574 6.424-3.378 9.81-2.048zm-40.466 7.579-95.552 95.552c-3.587 3.465-9.29 3.415-12.817-.111-3.527-3.527-3.576-9.229-.111-12.817l95.552-95.589c2.316-2.316 5.691-3.22 8.855-2.373 3.164.848 5.635 3.319 6.482 6.482.848 3.164-.057 6.539-2.373 8.855h-.036z"/></g></g></g></svg>